<svg width="200" height="60" viewBox="0 0 200 60" xmlns="http://www.w3.org/2000/svg">
  <g fill="#4A4A4A">
    <!-- Icon -->
    <path d="M48 15C48 15 48 15 48 15C48 20.2467 43.7467 24.5 38.5 24.5C33.2533 24.5 29 20.2467 29 15C29 9.7533 33.2533 5.5 38.5 5.5L48 5.5L48 15Z"/>
    <path d="M29 34C29 28.7533 33.2533 24.5 38.5 24.5C43.7467 24.5 48 28.7533 48 34L48 43.5C48 43.5 48 43.5 48 43.5C42.7533 43.5 38.5 39.2467 38.5 34L29 34Z"/>
    <path d="M67 15C67 20.2467 62.7467 24.5 57.5 24.5L48 24.5L48 5.5L57.5 5.5C62.7467 5.5 67 9.7533 67 15Z"/>
    <path d="M38.5 5.5C33.2533 5.5 29 9.7533 29 15C29 20.2467 33.2533 24.5 38.5 24.5L48 24.5L48 5.5L38.5 5.5Z"/>
    <path d="M67 34C67 39.2467 62.7467 43.5 57.5 43.5C52.2533 43.5 48 39.2467 48 34L48 24.5L57.5 24.5C62.7467 24.5 67 28.7533 67 34Z"/>
    
    <!-- Wordmark (Approximate geometric construction for "Figma") -->
    <text x="80" y="38" font-family="Inter, sans-serif" font-weight="600" font-size="28" letter-spacing="-1">Figma</text>
  </g>
</svg>
