<svg width="200" height="60" viewBox="0 0 200 60" xmlns="http://www.w3.org/2000/svg">
  <g fill="#4A4A4A">
    <!-- Google Wordmark -->
    <path d="M48.5 25.4v3.3h7.9c-.3 1.8-.9 3.2-1.8 4.1-1.1 1.1-2.9 2.4-6.1 2.4-4.8 0-8.6-3.9-8.6-8.7s3.8-8.7 8.6-8.7c2.6 0 4.5 1 5.9 2.3l2.3-2.3c-2.6-2.4-5.2-3.8-8.2-3.8-6.6 0-12.2 5.4-12.2 12s5.6 12 12.2 12c3.6 0 6.3-1.2 8.4-3.4 2.2-2.2 2.8-5.2 2.8-7.7 0-.8-.1-1.5-.2-2.1h-11z"/>
    <path d="M63.9 32.5c0 4.6 3.5 8.2 7.8 8.2 4.3 0 7.8-3.6 7.8-8.2s-3.5-8.2-7.8-8.2c-4.3 0-7.8 3.7-7.8 8.2zm3.4 0c0-2.9 2-4.9 4.4-4.9s4.4 2 4.4 4.9-2 4.9-4.4 4.9-4.4-2-4.4-4.9z"/>
    <path d="M81.3 32.5c0 4.6 3.5 8.2 7.8 8.2 4.3 0 7.8-3.6 7.8-8.2s-3.5-8.2-7.8-8.2c-4.3 0-7.8 3.7-7.8 8.2zm3.4 0c0-2.9 2-4.9 4.4-4.9s4.4 2 4.4 4.9-2 4.9-4.4 4.9-4.4-2-4.4-4.9z"/>
    <path d="M100 16.9v22.2c0 9.1-5.4 12.8-11.8 12.8-6 0-9.6-4-10.9-7.3l3-1.3c.8 1.9 2.8 5.3 7.9 5.3 5.1 0 7.9-3.2 7.9-9v-2.2h-.3c-1.9 2.4-5.5 4.5-9.6 4.5-9.1 0-16.7-7.9-16.7-16.9 0-9.1 7.7-16.9 16.7-16.9 4.1 0 7.7 2.1 9.6 4.5h.3v-2.7h3.1zm-3.2 15.6c0-2.9-2-5-4.5-5-2.6 0-4.6 2.1-4.6 5s2 5 4.6 5c2.5 0 4.5-2.1 4.5-5z"/>
    <path d="M105.5 8.5h3.4v31.3h-3.4z"/>
    <path d="M112.5 32.5c0 4.6 3.6 8.2 8.1 8.2 4.7 0 7.4-3.2 8.6-6.4l-3-1.3c-.8 1.9-2.2 4.5-5.6 4.5-3.2 0-5.3-1.7-6.2-3.5l17-7-6-1.5c-1.5-3.6-5.1-6.7-9.5-6.7-5.5 0-9.4 4.3-9.4 8.7zm3.3-1c1.1-2.3 3.8-3.5 5.8-3.5 1.7 0 2.9.9 3.3 1.9l-9.1 3.8z"/>
  </g>
</svg>
